<?xml version="1.0" encoding="UTF-8" standalone="no"?>
<svg
   xmlns:dc="http://purl.org/dc/elements/1.1/"
   xmlns:cc="http://creativecommons.org/ns#"
   xmlns:rdf="http://www.w3.org/1999/02/22-rdf-syntax-ns#"
   xmlns:svg="http://www.w3.org/2000/svg"
   xmlns="http://www.w3.org/2000/svg"
   width="600"
   height="150"
   viewBox="0 0 158.75 39.687501"
   version="1.1"
   id="svg1177">
  <defs
     id="defs1171" />
  <metadata
     id="metadata1174">
    <rdf:RDF>
      <cc:Work
         rdf:about="">
        <dc:format>image/svg+xml</dc:format>
        <dc:type
           rdf:resource="http://purl.org/dc/dcmitype/StillImage" />
        <dc:title></dc:title>
      </cc:Work>
    </rdf:RDF>
  </metadata>
  <g
     id="layer1"
     transform="translate(-2.4374964e-5,-250.69789)">
    <g
       transform="matrix(2.4252442,0,0,2.4252442,-1174.5306,451.87857)"
       id="g3770-5-5-3-1"
       style="fill:#000000">
      <path
         id="path3595-9-7-6-6-60-2"
         d="m 500.88552,-78.737592 -2.63911,1.63711 0.2,6.24717 -0.53433,0.6351 2.53886,1.2361 2.67269,-1.854285 -1.43661,0.250245 -1.46965,-0.66817 -0.0667,-1.97094 3.20704,-2.97346 z m -0.73483,1.80403 1.63658,1.50326 -1.67018,1.50327 z"
         style="fill:#000000;stroke:none;stroke-width:0.26499999;stroke-linecap:square;stroke-linejoin:bevel;stroke-miterlimit:4;stroke-dasharray:none;stroke-opacity:1;paint-order:normal" />
      <path
         id="path3599-9-4-8-2-6-2"
         d="m 487.6783,-80.040622 1.90429,-2.57247 3.47451,1.03567 4.14269,-0.66817 -2.80633,4.911079 2.47223,0.467721 -2.77293,0.4009 -0.50112,0.9086 2.6393,0.39434 -3.30748,0.33409 -4.24289,4.57699 4.47675,-1.50339 3.05331,0.965565 1.28983,-0.631485 -1.97112,2.60588 -3.77518,-1.23612 -4.91107,0.90204 3.64154,-5.67948 -2.47223,-0.33409 2.80632,-0.43431 0.52797,-0.86863 -2.64808,-0.4009 3.18919,-0.467721 4.04244,-4.075859 -4.40995,1.703839 -2.487,-0.903672 z"
         style="fill:#000000;stroke:none;stroke-width:0.26499999;stroke-linecap:square;stroke-linejoin:bevel;stroke-miterlimit:4;stroke-dasharray:none;stroke-opacity:1;paint-order:normal" />
      <path
         id="path3601-6-1-9-5-2-6"
         d="m 504.13688,-70.385512 1.52008,1.28624 1.5535,-1.16931 -0.53453,-0.8018 -0.10023,-4.72734 1.5702,-1.25282 0.63479,0.90203 0.0334,5.3788 -0.65146,0.56795 1.58692,1.10249 1.41986,-1.16931 -0.58465,-0.81851 0.0334,-4.81085 1.38644,-1.1693 0.81851,0.90203 v 6.06368 l 1.33637,1.08578 1.33112,-1.61018 -0.67967,-0.06027 -0.15034,-6.01356 0.54492,-1.267244 -0.94581,0.415323 -1.30295,-1.152599 -2.38871,2.18827 -1.28624,-2.23838 -2.6393,2.23838 -1.06908,-2.27179 -1.58333,1.504738 0.6479,0.04876 0.13364,6.24743 z"
         style="fill:#000000;stroke:none;stroke-width:0.26499999;stroke-linecap:square;stroke-linejoin:bevel;stroke-miterlimit:4;stroke-dasharray:none;stroke-opacity:1;paint-order:normal" />
      <path
         id="path3651-8-0-5-2-6-9"
         d="m 522.48406,-70.736302 2.15484,1.5368 2.10476,-1.98782 -1.14603,0.224546 -0.70815,-0.508516 -0.0668,-5.11153 0.86863,-0.68488 1.15261,1.1359 1.2194,-1.26953 -1.36975,-1.48669 -1.85416,1.63703 -1.11923,-1.57021 -1.80404,1.58691 1.00226,0.14735 0.15034,5.36509 z"
         style="fill:#000000;stroke:none;stroke-width:0.26499999;stroke-linecap:square;stroke-linejoin:bevel;stroke-miterlimit:4;stroke-dasharray:none;stroke-opacity:1;paint-order:normal" />
      <path
         id="path3653-4-0-5-6-1-1"
         d="m 531.61557,-78.754122 -2.72282,1.5198 0.13332,5.64617 -0.61804,0.90175 3.39102,1.62057 2.85667,-1.52032 0.11678,-6.63163 z m -0.90225,1.60352 2.13836,0.9188 -0.11731,5.5454 -1.97094,-0.78496 z"
         style="fill:#000000;stroke:none;stroke-width:0.26499999;stroke-linecap:square;stroke-linejoin:bevel;stroke-miterlimit:4;stroke-dasharray:none;stroke-opacity:1;paint-order:normal" />
      <path
         id="path3657-6-6-2-9-8-0"
         d="m 540.06183,-77.785532 v -0.53454 l -2.00452,-0.18375 -0.0668,-2.62258 -2.52235,3.50791 0.61807,0.18375 0.13363,5.86322 -0.45103,1.10249 2.2551,1.46998 2.05464,-2.20497 -1.1359,0.51783 -0.86863,-0.61806 -0.0167,-6.147201 z"
         style="fill:#000000;stroke:none;stroke-width:0.26499999;stroke-linecap:square;stroke-linejoin:bevel;stroke-miterlimit:4;stroke-dasharray:none;stroke-opacity:1;paint-order:normal" />
      <path
         id="path3659-7-4-1-1-7-4"
         d="m 540.71225,-70.353482 1.46466,1.2993 1.51191,-1.2993 -0.63783,-0.77957 0.0472,-4.86645 1.51191,-1.2048 0.63783,0.61422 0.11811,6.80357 -3.47266,2.858435 4.5109,-1.662935 0.79747,-1.53266 -0.0167,-6.89164 -1.34654,-1.9135 -2.62221,2.291479 -0.0236,-4.204989 0.87408,-1.27567 -1.96075,1.15756 -1.5119,-0.70871 0.89767,1.48828 -0.0709,1.6064 -1.42767,0.25032 0.11001,0.56049 1.17595,0.299499 v 6.543711 z"
         style="fill:#000000;stroke:none;stroke-width:0.26499999;stroke-linecap:square;stroke-linejoin:bevel;stroke-miterlimit:4;stroke-dasharray:none;stroke-opacity:1;paint-order:normal" />
      <path
         id="path3595-9-2-4-5-3-9-2"
         d="m 519.3279,-78.688962 -2.63911,1.63711 0.20001,6.24717 -0.53434,0.6351 2.53887,1.2361 2.60915,-1.727215 -1.37307,0.123175 -1.46966,-0.66817 -0.0667,-1.97094 3.20705,-2.97346 z m -0.73482,1.804029 1.63659,1.503271 -1.6702,1.50326 z"
         style="fill:#000000;stroke:none;stroke-width:0.26499999;stroke-linecap:square;stroke-linejoin:bevel;stroke-miterlimit:4;stroke-dasharray:none;stroke-opacity:1;paint-order:normal" />
    </g>
  </g>
</svg>
